<svg width="246" height="246" viewBox="0 0 246 246" fill="none" xmlns="http://www.w3.org/2000/svg">
<g filter="url(#filter0_df)">
<circle cx="123" cy="83" r="50" fill="url(#paint0_radial)"/>
</g>
<g filter="url(#filter1_f)">
<path d="M51.7239 226C48.0979 226 45.8987 222.378 48.0328 219.446C56.1206 208.337 77.6132 187 123.393 187C169.358 187 189.854 208.51 197.359 219.581C199.347 222.513 197.138 226 193.595 226H123.393H51.7239Z" fill="black"/>
</g>
<g filter="url(#filter2_f)">
<circle cx="136" cy="105" r="15" fill="url(#paint1_radial)"/>
<circle cx="119" cy="110" r="15" fill="url(#paint2_radial)"/>
<circle cx="72" cy="144" r="15" fill="url(#paint3_radial)"/>
<circle cx="149" cy="156" r="15" fill="url(#paint4_radial)"/>
<circle cx="162" cy="154" r="15" fill="url(#paint5_radial)"/>
<circle cx="86" cy="155" r="15" fill="url(#paint6_radial)"/>
<circle cx="111" cy="154" r="15" fill="url(#paint7_radial)"/>
<circle cx="169" cy="130" r="15" fill="url(#paint8_radial)"/>
<circle cx="167" cy="148" r="15" fill="url(#paint9_radial)"/>
<circle cx="143" cy="136" r="15" fill="url(#paint10_radial)"/>
<circle cx="127" cy="149" r="15" fill="url(#paint11_radial)"/>
<circle cx="128" cy="119" r="15" fill="url(#paint12_radial)"/>
<circle cx="152" cy="117" r="15" fill="url(#paint13_radial)"/>
<circle cx="82" cy="129" r="15" fill="url(#paint14_radial)"/>
<circle cx="81" cy="142" r="15" fill="url(#paint15_radial)"/>
<circle cx="102" cy="123" r="15" fill="url(#paint16_radial)"/>
<circle cx="97" cy="152" r="15" fill="url(#paint17_radial)"/>
<circle cx="118" cy="138" r="15" fill="url(#paint18_radial)"/>
<circle cx="63" cy="156" r="5" fill="url(#paint19_radial)"/>
<circle cx="54" cy="149" r="5" fill="url(#paint20_radial)"/>
<circle cx="77" cy="159" r="5" fill="url(#paint21_radial)"/>
<circle cx="82" cy="166" r="5" fill="url(#paint22_radial)"/>
<circle cx="90" cy="172" r="5" fill="url(#paint23_radial)"/>
<circle cx="99" cy="170" r="5" fill="url(#paint24_radial)"/>
<circle cx="106" cy="175" r="5" fill="url(#paint25_radial)"/>
<circle cx="56" cy="139" r="5" fill="url(#paint26_radial)"/>
<circle cx="60" cy="131" r="5" fill="url(#paint27_radial)"/>
<circle cx="68" cy="123" r="5" fill="url(#paint28_radial)"/>
<circle cx="82" cy="109" r="5" fill="url(#paint29_radial)"/>
<circle cx="105" cy="104" r="5" fill="url(#paint30_radial)"/>
<circle cx="96" cy="105" r="5" fill="url(#paint31_radial)"/>
<circle cx="74" cy="114" r="5" fill="url(#paint32_radial)"/>
<circle cx="66" cy="130" r="5" fill="url(#paint33_radial)"/>
<circle cx="64" cy="139" r="5" fill="url(#paint34_radial)"/>
<circle cx="153" cy="174" r="5" fill="url(#paint35_radial)"/>
<circle cx="165" cy="169" r="5" fill="url(#paint36_radial)"/>
<circle cx="180" cy="157" r="5" fill="url(#paint37_radial)"/>
<circle cx="188" cy="148" r="5" fill="url(#paint38_radial)"/>
<circle cx="185" cy="139" r="5" fill="url(#paint39_radial)"/>
<circle cx="191" cy="133" r="5" fill="url(#paint40_radial)"/>
<circle cx="188" cy="123" r="5" fill="url(#paint41_radial)"/>
<circle cx="183" cy="116" r="5" fill="url(#paint42_radial)"/>
<circle cx="177" cy="113" r="5" fill="url(#paint43_radial)"/>
<circle cx="168" cy="111" r="5" fill="url(#paint44_radial)"/>
<circle cx="167" cy="98" r="5" fill="url(#paint45_radial)"/>
<circle cx="157" cy="100" r="5" fill="url(#paint46_radial)"/>
<circle cx="152" cy="99" r="5" fill="url(#paint47_radial)"/>
<circle cx="142" cy="100" r="5" fill="url(#paint48_radial)"/>
<circle cx="139" cy="90" r="5" fill="url(#paint49_radial)"/>
<circle cx="128" cy="90" r="5" fill="url(#paint50_radial)"/>
<circle cx="115" cy="92" r="5" fill="url(#paint51_radial)"/>
<circle cx="106" cy="97" r="5" fill="url(#paint52_radial)"/>
<circle cx="119" cy="94" r="5" fill="url(#paint53_radial)"/>
<circle cx="88" cy="109" r="5" fill="url(#paint54_radial)"/>
<circle cx="135" cy="103" r="5" fill="url(#paint55_radial)"/>
<circle cx="118" cy="106" r="5" fill="url(#paint56_radial)"/>
</g>
<g filter="url(#filter3_f)">
<path d="M117.358 143.095L121.234 147.846" stroke="black"/>
<path d="M126.921 144.162L124.891 149.782" stroke="black"/>
<path d="M120 167H124C123 170.5 123 180 123.5 190H119C119 190 121 170.5 120 167Z" fill="black"/>
<path d="M121.761 168.688L134.198 163.055" stroke="black" stroke-width="1.5"/>
<path d="M144.449 166.49L132.125 163.054" stroke="black" stroke-width="1.2"/>
<path d="M127.979 159.594L133.213 156.836" stroke="black"/>
<path d="M126.952 153.755L128.799 159.376" stroke="black"/>
<path d="M135.65 152.69L132.125 157.441" stroke="black"/>
<path d="M135.441 153.199L140.675 150.44" stroke="black"/>
<path d="M134.414 147.36L136.261 152.981" stroke="black"/>
<path d="M143.112 146.293L139.587 151.045" stroke="black"/>
<path d="M134.473 147.869L129.341 145.11" stroke="black"/>
<path d="M135.48 142.029L133.669 147.65" stroke="black"/>
<path d="M126.952 140.963L130.409 145.715" stroke="black"/>
<path d="M114.793 158.529L109.269 155.77" stroke="black"/>
<path d="M115.878 152.69L113.929 158.311" stroke="black"/>
<path d="M106.698 151.624L110.419 156.375" stroke="black"/>
<path d="M115.816 153.199L121.232 150.44" stroke="black"/>
<path d="M114.753 147.36L116.664 152.981" stroke="black"/>
<path d="M123.754 146.293L120.106 151.045" stroke="black"/>
<path d="M115.86 147.869L110.336 145.11" stroke="black"/>
<path d="M116.944 142.029L114.995 147.65" stroke="black"/>
<path d="M107.764 140.963L111.485 145.715" stroke="black"/>
<path d="M116.882 142.538L122.298 139.779" stroke="black"/>
<path d="M115.819 136.699L117.73 142.32" stroke="black"/>
<path d="M124.82 135.633L121.172 140.385" stroke="black"/>
<path d="M148.119 165.126L142.489 166.945" stroke="black"/>
<path d="M142.489 165.051L146.783 160.981" stroke="black"/>
<path d="M128.519 158.909L121.761 168.092" stroke="black" stroke-width="1.5"/>
<path d="M125.792 150L120.037 147.242" stroke="black"/>
<path d="M135.48 148.425L131.526 153.177" stroke="black"/>
<path d="M125.726 149.492L127.797 155.113" stroke="black"/>
<path d="M126.878 155.331L132.748 152.572" stroke="black"/>
<path d="M134.414 123.907L130.766 128.658" stroke="black"/>
<path d="M125.413 124.973L127.324 130.594" stroke="black"/>
<path d="M126.476 130.812L131.892 128.053" stroke="black"/>
<path d="M117.358 129.237L121.079 133.989" stroke="black"/>
<path d="M126.538 130.303L124.589 135.924" stroke="black"/>
<path d="M125.454 136.142L119.93 133.383" stroke="black"/>
<path d="M121.319 168.68L114.923 164.927" stroke="black" stroke-width="1.5"/>
<path d="M109.651 167.216L115.989 164.926" stroke="black" stroke-width="1.2"/>
<path d="M118.121 162.621L115.43 160.782" stroke="black"/>
<path d="M119.187 158.02L118.238 161.765" stroke="black"/>
<path d="M114.176 158.02L115.989 161.186" stroke="black"/>
<path d="M105.632 163.544L108.527 164.757" stroke="black"/>
<path d="M110.659 166.257L108.451 163.545" stroke="black"/>
<path d="M117.844 162.164L121.319 168.283" stroke="black" stroke-width="1.5"/>
<path d="M147.84 160.66L142.316 157.901" stroke="black"/>
<path d="M148.924 154.821L146.975 160.442" stroke="black"/>
<path d="M139.744 153.755L143.465 158.507" stroke="black"/>
<path d="M148.862 155.33L154.278 152.571" stroke="black"/>
<path d="M147.799 149.491L149.71 155.112" stroke="black"/>
<path d="M156.8 148.425L153.152 153.177" stroke="black"/>
<path d="M91.832 159.331L92.7631 153.222" stroke="black"/>
<path d="M97.7427 158.554L91.7733 158.441" stroke="black"/>
<path d="M95.9294 149.491L92.5392 154.502" stroke="black"/>
<path d="M97.2378 158.652L101.543 162.95" stroke="black"/>
<path d="M102.486 155.833L97.7072 159.392" stroke="black"/>
<path d="M106.28 164.066L100.617 162.067" stroke="black"/>
<path d="M95.3096 150.021L98.7002 144.849" stroke="black"/>
<path d="M91.3235 145.363L95.9518 149.401" stroke="black"/>
<path d="M98.7896 139.897L98.0114 145.953" stroke="black" stroke-width="0.7"/>
<path d="M91.6426 145.784L85.4747 145.997" stroke="black"/>
<path d="M89.5327 140.07L90.7885 146.008" stroke="black" stroke-width="0.7"/>
<path d="M81.1133 143.552L86.7736 145.981" stroke="black"/>
<path d="M156.859 148.67L157.79 142.561" stroke="black" stroke-width="0.7"/>
<path d="M162.77 147.894L156.8 147.78" stroke="black"/>
<path d="M160.957 138.832L157.566 143.842" stroke="black" stroke-width="0.7"/>
<path d="M162.265 147.992L166.57 152.29" stroke="black" stroke-width="0.7"/>
<path d="M167.513 145.173L162.734 148.732" stroke="black" stroke-width="0.7"/>
<path d="M171.307 153.406L165.644 151.406" stroke="black" stroke-width="0.7"/>
<path d="M106.637 151.869L105.68 145.76" stroke="black"/>
<path d="M100.557 151.092L106.698 150.978" stroke="black"/>
<path d="M102.422 142.029L105.91 147.04" stroke="black" stroke-width="0.7"/>
<path d="M101.076 151.19L96.6472 155.488" stroke="black"/>
<path d="M95.6765 148.371L100.593 151.929" stroke="black"/>
<path d="M91.7734 156.604L97.5993 154.604" stroke="black"/>
<path d="M159.938 139.077L158.981 132.968" stroke="black" stroke-width="0.7"/>
<path d="M153.857 138.3L159.999 138.186" stroke="black" stroke-width="0.7"/>
<path d="M155.723 129.237L159.21 134.248" stroke="black" stroke-width="0.7"/>
<path d="M154.377 138.398L149.948 142.696" stroke="black" stroke-width="0.7"/>
<path d="M148.977 135.579L153.894 139.137" stroke="black" stroke-width="0.7"/>
<path d="M145.074 143.812L150.9 141.812" stroke="black" stroke-width="0.7"/>
<path d="M117.298 130.548L116.34 124.439" stroke="black" stroke-width="0.7"/>
<path d="M111.217 129.772L117.358 129.658" stroke="black" stroke-width="0.7"/>
<path d="M113.082 120.709L116.57 125.72" stroke="black" stroke-width="0.7"/>
<path d="M111.737 129.87L107.308 134.168" stroke="black" stroke-width="0.7"/>
<path d="M106.337 127.051L111.253 130.609" stroke="black" stroke-width="0.7"/>
<path d="M102.434 135.284L108.259 133.284" stroke="black" stroke-width="0.7"/>
<path d="M134.483 124.152L135.578 118.043" stroke="black" stroke-width="0.7"/>
<path d="M141.433 123.375L134.414 123.262" stroke="black" stroke-width="0.7"/>
<path d="M139.301 114.313L135.315 119.324" stroke="black" stroke-width="0.7"/>
<path d="M140.839 123.474L145.9 127.772" stroke="black" stroke-width="0.7"/>
<path d="M147.01 120.655L141.391 124.213" stroke="black" stroke-width="0.7"/>
<path d="M151.47 128.887L144.812 126.888" stroke="black" stroke-width="0.7"/>
<path d="M155.803 129.482L156.898 123.373" stroke="black" stroke-width="0.7"/>
<path d="M162.752 128.706L155.734 128.592" stroke="black" stroke-width="0.7"/>
<path d="M131.001 135.633L128.018 141.987" stroke="black" stroke-width="0.7"/>
<path d="M111.813 135.633L108.83 141.987" stroke="black" stroke-width="0.7"/>
<path d="M107.862 142.215L102.434 137.766" stroke="black" stroke-width="0.7"/>
<path d="M119.588 158.206L114.16 153.756" stroke="black" stroke-width="0.7"/>
<path d="M119.49 157.428L120.928 150.557" stroke="black" stroke-width="0.7"/>
<path d="M116.292 137.173L117.73 130.303" stroke="black" stroke-width="0.7"/>
<path d="M97.4829 144.87L93.9054 138.831" stroke="black" stroke-width="0.7"/>
<path d="M160.621 119.643L156.635 124.654" stroke="black" stroke-width="0.7"/>
<path d="M162.159 128.804L167.22 133.102" stroke="black" stroke-width="0.7"/>
<path d="M168.33 125.985L162.711 129.543" stroke="black" stroke-width="0.7"/>
<path d="M172.79 134.217L166.132 132.218" stroke="black" stroke-width="0.7"/>
<path d="M89.5684 140.143L88.4052 134.034" stroke="black" stroke-width="0.7"/>
<path d="M82.1843 139.366L89.6415 139.252" stroke="black" stroke-width="0.7"/>
<path d="M84.4495 130.303L88.6847 135.314" stroke="black" stroke-width="0.7"/>
<path d="M82.8154 139.464L77.4374 143.762" stroke="black" stroke-width="0.7"/>
<path d="M76.2585 136.645L82.2286 140.203" stroke="black" stroke-width="0.7"/>
<path d="M71.5193 144.877L78.5936 142.878" stroke="black" stroke-width="0.7"/>
<path d="M106.625 127.351L105.461 121.242" stroke="black" stroke-width="0.7"/>
<path d="M99.2405 126.574L106.698 126.46" stroke="black" stroke-width="0.7"/>
<path d="M101.506 117.511L105.741 122.522" stroke="black" stroke-width="0.7"/>
<path d="M99.8716 126.672L94.4936 130.97" stroke="black" stroke-width="0.7"/>
<path d="M93.3147 123.853L99.2847 127.411" stroke="black" stroke-width="0.7"/>
<path d="M88.5754 132.085L95.6497 130.086" stroke="black" stroke-width="0.7"/>
<path d="M141.162 127.116L147.198 128.507" stroke="black" stroke-width="0.7"/>
<path d="M141.546 133.667L142.054 127.105" stroke="black" stroke-width="0.7"/>
<path d="M150.712 132.215L145.935 128.184" stroke="black" stroke-width="0.7"/>
<path d="M141.481 133.104L136.907 137.584" stroke="black" stroke-width="0.7"/>
<path d="M143.949 139.049L140.713 133.577" stroke="black" stroke-width="0.7"/>
<path d="M135.48 142.729L137.85 136.619" stroke="black" stroke-width="0.7"/>
<path d="M152.488 175.321L151.53 169.212" stroke="black"/>
<path d="M148.272 165.481L151.76 170.492" stroke="black"/>
<path d="M148.353 165.727L149.447 159.618" stroke="black"/>
<path d="M155.302 164.95L148.284 164.837" stroke="black"/>
<path d="M153.17 155.888L149.184 160.898" stroke="black"/>
<path d="M154.708 165.048L159.77 169.346" stroke="black"/>
<path d="M160.879 162.229L155.261 165.788" stroke="black"/>
<path d="M165.34 170.462L158.682 168.463" stroke="black"/>
<path d="M105.031 156.954L106.701 162.908" stroke="black"/>
<path d="M110.374 166.229L106.321 161.663" stroke="black"/>
<path d="M110.265 165.995L109.897 172.19" stroke="black"/>
<path d="M103.456 167.583L110.439 166.87" stroke="black"/>
<path d="M106.639 176.332L110.008 170.887" stroke="black"/>
<path d="M104.034 167.416L98.502 163.743" stroke="black"/>
<path d="M98.2375 170.941L103.399 166.747" stroke="black"/>
<path d="M92.8396 163.29L99.6866 164.492" stroke="black"/>
<path d="M87.9749 153.755L89.6446 159.709" stroke="black"/>
<path d="M93.3179 163.03L89.265 158.464" stroke="black"/>
<path d="M93.209 162.797L92.8403 168.992" stroke="black"/>
<path d="M86.3994 164.385L93.3824 163.672" stroke="black"/>
<path d="M89.5825 173.134L92.9515 167.689" stroke="black"/>
<path d="M86.9778 164.218L81.4459 160.545" stroke="black"/>
<path d="M81.1814 167.743L86.3427 163.548" stroke="black"/>
<path d="M75.7834 160.092L82.6304 161.294" stroke="black"/>
<path d="M132.608 116.867L127.706 120.636" stroke="black" stroke-width="0.7"/>
<path d="M125.994 125.283L128.72 119.82" stroke="black" stroke-width="0.7"/>
<path d="M126.17 125.095L120.284 127.063" stroke="black" stroke-width="0.7"/>
<path d="M122.158 119.368L125.422 125.582" stroke="black" stroke-width="0.7"/>
<path d="M115.226 125.583L121.534 126.679" stroke="black" stroke-width="0.7"/>
<path d="M122.529 119.842L123.874 113.34" stroke="black" stroke-width="0.7"/>
<path d="M117.097 115.778L122.913 119.003" stroke="black" stroke-width="0.7"/>
<path d="M122.184 107.917L123.621 114.719" stroke="black" stroke-width="0.7"/>
<path d="M142.942 147.833L144.38 140.963" stroke="black" stroke-width="0.7"/>
<path d="M142.942 146.602L149.524 144.161" stroke="black" stroke-width="0.7"/>
<path d="M72.418 157.009L78.418 157.527" stroke="black"/>
<path d="M82.5923 160.005L77.2879 156.898" stroke="black" stroke-width="0.8"/>
<path d="M73.4851 156.245L67.8417 158.77" stroke="black" stroke-width="0.7"/>
<path d="M69.542 151.595L72.7708 156.78" stroke="black" stroke-width="0.7"/>
<path d="M62.949 158.083L69.0405 158.266" stroke="black" stroke-width="0.7"/>
<path d="M69.9058 151.974L71.114 145.94" stroke="black" stroke-width="0.7"/>
<path d="M64.6182 149.003L70.2644 151.169" stroke="black" stroke-width="0.7"/>
<path d="M69.4116 141.267L70.8879 147.215" stroke="black" stroke-width="0.7"/>
<path d="M65.0249 149.081L59.2704 151.436" stroke="black" stroke-width="0.7"/>
<path d="M60.3765 143.343L64.3176 149.626" stroke="black" stroke-width="0.7"/>
<path d="M54 150.165L60.4961 150.971" stroke="black" stroke-width="0.7"/>
<path d="M60.8008 143.816L61.4952 136.99" stroke="black" stroke-width="0.7"/>
<path d="M54.8865 139.88L61.103 142.924" stroke="black" stroke-width="0.7"/>
<path d="M59.2275 131.445L61.3796 138.435" stroke="black" stroke-width="0.7"/>
<path d="M169.698 158.349L163.747 159.827" stroke="black"/>
<path d="M159.999 162.955L164.77 159.021" stroke="black" stroke-width="0.8"/>
<path d="M168.481 157.763L174.635 159.36" stroke="black" stroke-width="0.7"/>
<path d="M171.596 152.519L169.3 158.179" stroke="black" stroke-width="0.7"/>
<path d="M179.439 157.893L173.334 159.053" stroke="black" stroke-width="0.7"/>
<path d="M171.299 152.953L168.967 147.164" stroke="black" stroke-width="0.7"/>
<path d="M176.079 149.157L170.789 152.212" stroke="black" stroke-width="0.7"/>
<path d="M169.819 142.256L169.43 148.392" stroke="black" stroke-width="0.7"/>
<path d="M175.683 149.3L181.917 150.71" stroke="black" stroke-width="0.7"/>
<path d="M179.308 142.862L176.497 149.726" stroke="black" stroke-width="0.7"/>
<path d="M186.994 148.603L180.597 150.446" stroke="black" stroke-width="0.7"/>
<path d="M178.968 143.399L177.006 136.742" stroke="black" stroke-width="0.7"/>
<path d="M184.201 138.546L178.498 142.564" stroke="black" stroke-width="0.7"/>
<path d="M178.267 130.879L177.39 138.157" stroke="black" stroke-width="0.7"/>
<path d="M172.896 143.424L166.945 144.903" stroke="black"/>
<path d="M163.196 148.031L167.968 144.097" stroke="black" stroke-width="0.8"/>
<path d="M171.679 142.838L177.833 144.436" stroke="black" stroke-width="0.7"/>
<path d="M174.794 137.594L172.498 143.255" stroke="black" stroke-width="0.7"/>
<path d="M182.637 142.968L176.532 144.128" stroke="black" stroke-width="0.7"/>
<path d="M174.497 138.029L172.165 132.239" stroke="black" stroke-width="0.7"/>
<path d="M179.277 134.233L173.987 137.287" stroke="black" stroke-width="0.7"/>
<path d="M173.017 127.332L172.628 133.468" stroke="black" stroke-width="0.7"/>
<path d="M178.881 134.375L185.115 135.786" stroke="black" stroke-width="0.7"/>
<path d="M182.506 127.938L179.695 134.802" stroke="black" stroke-width="0.7"/>
<path d="M190.192 133.678L183.795 135.522" stroke="black" stroke-width="0.7"/>
<path d="M182.165 128.475L180.204 121.818" stroke="black" stroke-width="0.7"/>
<path d="M187.399 123.623L181.696 127.64" stroke="black" stroke-width="0.7"/>
<path d="M181.465 115.956L180.588 123.233" stroke="black" stroke-width="0.7"/>
<path d="M137.6 124.945L140.47 130.199" stroke="black"/>
<path d="M140.719 135.038L140.369 128.912" stroke="black" stroke-width="0.8"/>
<path d="M138.818 125.401L133.63 122.144" stroke="black" stroke-width="0.7"/>
<path d="M140.49 119.539L137.983 125.108" stroke="black" stroke-width="0.7"/>
<path d="M131.507 117.712L134.705 122.854" stroke="black" stroke-width="0.7"/>
<path d="M140.376 120.052L146.023 117.678" stroke="black" stroke-width="0.7"/>
<path d="M139.923 114.016L141.239 119.898" stroke="black" stroke-width="0.7"/>
<path d="M148.946 113.656L144.846 118.204" stroke="black" stroke-width="0.7"/>
<path d="M140.082 114.396L134.974 110.952" stroke="black" stroke-width="0.7"/>
<path d="M142.265 107.342L139.243 114.116" stroke="black" stroke-width="0.7"/>
<path d="M133.126 105.881L136.032 111.706" stroke="black" stroke-width="0.7"/>
<path d="M142.107 107.958L148.126 104.716" stroke="black" stroke-width="0.7"/>
<path d="M142.106 100.864L143.01 107.709" stroke="black" stroke-width="0.7"/>
<path d="M151.458 99.7393L146.869 105.428" stroke="black" stroke-width="0.7"/>
<path d="M91.7612 129.208L94.6315 134.462" stroke="black"/>
<path d="M94.8799 139.302L94.5297 133.176" stroke="black" stroke-width="0.8"/>
<path d="M92.9788 129.665L87.7909 126.408" stroke="black" stroke-width="0.7"/>
<path d="M94.6506 123.802L92.1443 129.372" stroke="black" stroke-width="0.7"/>
<path d="M85.6685 121.976L88.8663 127.117" stroke="black" stroke-width="0.7"/>
<path d="M94.5374 124.315L100.184 121.941" stroke="black" stroke-width="0.7"/>
<path d="M94.0837 118.28L95.3998 124.162" stroke="black" stroke-width="0.7"/>
<path d="M103.107 117.92L99.0068 122.467" stroke="black" stroke-width="0.7"/>
<path d="M94.2429 118.66L89.1354 115.216" stroke="black" stroke-width="0.7"/>
<path d="M96.4258 111.606L93.404 118.38" stroke="black" stroke-width="0.7"/>
<path d="M87.2874 110.145L90.1927 115.97" stroke="black" stroke-width="0.7"/>
<path d="M96.2686 112.222L102.287 108.98" stroke="black" stroke-width="0.7"/>
<path d="M96.2671 105.127L97.1708 111.973" stroke="black" stroke-width="0.7"/>
<path d="M105.619 104.003L101.03 109.692" stroke="black" stroke-width="0.7"/>
<path d="M80.552 137.964L85.4699 141.378" stroke="black"/>
<path d="M87.8577 145.595L84.8033 140.273" stroke="black" stroke-width="0.8"/>
<path d="M81.845 137.827L75.7481 137.236" stroke="black" stroke-width="0.7"/>
<path d="M80.717 131.836L80.968 137.938" stroke="black" stroke-width="0.7"/>
<path d="M71.8667 134.222L77.0274 137.389" stroke="black" stroke-width="0.7"/>
<path d="M80.845 132.346L84.8324 127.696" stroke="black" stroke-width="0.7"/>
<path d="M77.7385 127.151L81.5475 131.822" stroke="black" stroke-width="0.7"/>
<path d="M85.647 122.792L84.0149 128.693" stroke="black" stroke-width="0.7"/>
<path d="M78.0513 127.42L71.9423 126.625" stroke="black" stroke-width="0.7"/>
<path d="M76.8467 120.134L77.1755 127.544" stroke="black" stroke-width="0.7"/>
<path d="M68.02 122.917L73.2249 126.826" stroke="black" stroke-width="0.7"/>
<path d="M76.9812 120.755L80.9125 115.163" stroke="black" stroke-width="0.7"/>
<path d="M73.8059 114.412L77.6772 120.129" stroke="black" stroke-width="0.7"/>
<path d="M81.6655 109.222L80.1073 116.363" stroke="black" stroke-width="0.7"/>
<path d="M79.7368 149.684L85.5289 151.198" stroke="black"/>
<path d="M89.2207 154.336L84.5224 150.39" stroke="black" stroke-width="0.8"/>
<path d="M80.9036 149.11L74.9754 150.652" stroke="black" stroke-width="0.7"/>
<path d="M77.7837 143.874L80.1181 149.517" stroke="black" stroke-width="0.7"/>
<path d="M70.2942 149.157L76.2294 150.356" stroke="black" stroke-width="0.7"/>
<path d="M78.0793 144.308L80.2242 138.57" stroke="black" stroke-width="0.7"/>
<path d="M73.376 140.499L78.5592 143.575" stroke="black" stroke-width="0.7"/>
<path d="M79.3027 133.685L79.8 139.787" stroke="black" stroke-width="0.7"/>
<path d="M73.7617 140.643L67.7521 141.998" stroke="black" stroke-width="0.7"/>
<path d="M70.1252 134.216L72.9825 141.061" stroke="black" stroke-width="0.7"/>
<path d="M62.7944 139.865L69.0263 141.745" stroke="black" stroke-width="0.7"/>
<path d="M70.4651 134.753L72.2332 128.15" stroke="black" stroke-width="0.7"/>
<path d="M65.3015 129.889L70.903 133.926" stroke="black" stroke-width="0.7"/>
<path d="M70.897 122.312L71.8898 129.554" stroke="black" stroke-width="0.7"/>
<path d="M111.036 121.882L115.654 125.692" stroke="black"/>
<path d="M117.684 130.092L115.081 124.536" stroke="black" stroke-width="0.8"/>
<path d="M112.335 121.853L106.308 120.759" stroke="black" stroke-width="0.7"/>
<path d="M111.708 115.789L111.452 121.891" stroke="black" stroke-width="0.7"/>
<path d="M102.69 117.433L107.571 121.017" stroke="black" stroke-width="0.7"/>
<path d="M111.793 116.308L116.152 112.004" stroke="black" stroke-width="0.7"/>
<path d="M109.128 110.874L112.537 115.844" stroke="black" stroke-width="0.7"/>
<path d="M117.37 107.184L115.254 112.93" stroke="black" stroke-width="0.7"/>
<path d="M109.417 111.167L103.395 109.869" stroke="black" stroke-width="0.7"/>
<path d="M108.82 103.807L108.534 111.219" stroke="black" stroke-width="0.7"/>
<path d="M99.7932 105.849L104.656 110.176" stroke="black" stroke-width="0.7"/>
<path d="M108.903 104.437L113.284 99.1891" stroke="black" stroke-width="0.7"/>
<path d="M106.263 97.8521L109.648 103.87" stroke="black" stroke-width="0.7"/>
<path d="M114.526 93.3311L112.382 100.318" stroke="black" stroke-width="0.7"/>
<path d="M122.841 114.167L125.334 119.61" stroke="black"/>
<path d="M125.24 124.454L125.323 118.319" stroke="black" stroke-width="0.8"/>
<path d="M124.023 114.707L119.077 111.093" stroke="black" stroke-width="0.7"/>
<path d="M126.104 108.978L123.212 114.357" stroke="black" stroke-width="0.7"/>
<path d="M117.273 106.522L120.101 111.876" stroke="black" stroke-width="0.7"/>
<path d="M125.955 109.481L131.755 107.511" stroke="black" stroke-width="0.7"/>
<path d="M125.928 103.429L126.826 109.389" stroke="black" stroke-width="0.7"/>
<path d="M134.954 103.706L130.543 107.953" stroke="black" stroke-width="0.7"/>
<path d="M126.06 103.819L121.207 100.024" stroke="black" stroke-width="0.7"/>
<path d="M128.734 96.9365L125.242 103.481" stroke="black" stroke-width="0.7"/>
<path d="M119.721 94.835L122.209 100.85" stroke="black" stroke-width="0.7"/>
<path d="M128.534 97.5391L134.765 94.7292" stroke="black" stroke-width="0.7"/>
<path d="M129.032 90.4629L129.451 97.3547" stroke="black" stroke-width="0.7"/>
<path d="M138.439 90L133.461 95.3513" stroke="black" stroke-width="0.7"/>
<path d="M158.452 128.725L157.175 134.574" stroke="black"/>
<path d="M154.191 138.391L157.942 133.536" stroke="black" stroke-width="0.8"/>
<path d="M159.073 129.867L157.29 124.007" stroke="black" stroke-width="0.7"/>
<path d="M164.178 126.537L158.635 129.1" stroke="black" stroke-width="0.7"/>
<path d="M158.594 119.269L157.638 125.248" stroke="black" stroke-width="0.7"/>
<path d="M163.757 126.85L169.577 128.758" stroke="black" stroke-width="0.7"/>
<path d="M167.371 121.995L164.509 127.299" stroke="black" stroke-width="0.7"/>
<path d="M174.421 127.638L168.343 128.384" stroke="black" stroke-width="0.7"/>
<path d="M167.241 122.386L165.642 116.437" stroke="black" stroke-width="0.7"/>
<path d="M173.514 118.49L166.792 121.625" stroke="black" stroke-width="0.7"/>
<path d="M167.572 111.396L165.947 117.699" stroke="black" stroke-width="0.7"/>
<path d="M172.992 118.851L179.662 120.348" stroke="black" stroke-width="0.7"/>
<path d="M177.641 113.494L173.837 119.255" stroke="black" stroke-width="0.7"/>
<path d="M185.44 118.775L178.246 120.063" stroke="black" stroke-width="0.7"/>
<path d="M153.504 123.884L156.522 129.054" stroke="black"/>
<path d="M156.907 133.884L156.384 127.771" stroke="black" stroke-width="0.8"/>
<path d="M154.734 124.305L149.456 121.196" stroke="black" stroke-width="0.7"/>
<path d="M156.24 118.397L153.892 124.036" stroke="black" stroke-width="0.7"/>
<path d="M147.209 116.825L150.552 121.874" stroke="black" stroke-width="0.7"/>
<path d="M156.141 118.914L161.718 116.38" stroke="black" stroke-width="0.7"/>
<path d="M155.516 112.893L156.998 118.735" stroke="black" stroke-width="0.7"/>
<path d="M164.526 112.278L160.556 116.94" stroke="black" stroke-width="0.7"/>
<path d="M155.687 113.269L150.484 109.97" stroke="black" stroke-width="0.7"/>
<path d="M157.669 106.155L154.84 113.012" stroke="black" stroke-width="0.7"/>
<path d="M148.493 104.954L151.562 110.694" stroke="black" stroke-width="0.7"/>
<path d="M157.529 106.775L163.453 103.364" stroke="black" stroke-width="0.7"/>
<path d="M157.327 99.6846L158.424 106.501" stroke="black" stroke-width="0.7"/>
<path d="M166.643 98.2954L162.216 104.112" stroke="black" stroke-width="0.7"/>
</g>
<defs>
<filter id="filter0_df" x="0" y="0" width="246" height="246" filterUnits="userSpaceOnUse" color-interpolation-filters="sRGB">
<feFlood flood-opacity="0" result="BackgroundImageFix"/>
<feColorMatrix in="SourceAlpha" type="matrix" values="0 0 0 0 0 0 0 0 0 0 0 0 0 0 0 0 0 0 127 0" result="hardAlpha"/>
<feMorphology radius="3" operator="dilate" in="SourceAlpha" result="effect1_dropShadow"/>
<feOffset dy="40"/>
<feGaussianBlur stdDeviation="35"/>
<feComposite in2="hardAlpha" operator="out"/>
<feColorMatrix type="matrix" values="0 0 0 0 0.956863 0 0 0 0 0.917647 0 0 0 0 0.443137 0 0 0 1 0"/>
<feBlend mode="normal" in2="BackgroundImageFix" result="effect1_dropShadow"/>
<feBlend mode="normal" in="SourceGraphic" in2="effect1_dropShadow" result="shape"/>
<feGaussianBlur stdDeviation="7.5" result="effect2_foregroundBlur"/>
</filter>
<filter id="filter1_f" x="45.1946" y="185" width="154.914" height="43" filterUnits="userSpaceOnUse" color-interpolation-filters="sRGB">
<feFlood flood-opacity="0" result="BackgroundImageFix"/>
<feBlend mode="normal" in="SourceGraphic" in2="BackgroundImageFix" result="shape"/>
<feGaussianBlur stdDeviation="1" result="effect1_foregroundBlur"/>
</filter>
<filter id="filter2_f" x="47" y="83" width="151" height="99" filterUnits="userSpaceOnUse" color-interpolation-filters="sRGB">
<feFlood flood-opacity="0" result="BackgroundImageFix"/>
<feBlend mode="normal" in="SourceGraphic" in2="BackgroundImageFix" result="shape"/>
<feGaussianBlur stdDeviation="1" result="effect1_foregroundBlur"/>
</filter>
<filter id="filter3_f" x="52.9883" y="88.7354" width="138.256" height="102.265" filterUnits="userSpaceOnUse" color-interpolation-filters="sRGB">
<feFlood flood-opacity="0" result="BackgroundImageFix"/>
<feBlend mode="normal" in="SourceGraphic" in2="BackgroundImageFix" result="shape"/>
<feGaussianBlur stdDeviation="0.5" result="effect1_foregroundBlur"/>
</filter>
<radialGradient id="paint0_radial" cx="0" cy="0" r="1" gradientUnits="userSpaceOnUse" gradientTransform="translate(98 66.5) rotate(31.7989) scale(88.2454)">
<stop stop-color="#F9E02D"/>
<stop offset="1" stop-color="#F4EA71"/>
</radialGradient>
<radialGradient id="paint1_radial" cx="0" cy="0" r="1" gradientUnits="userSpaceOnUse" gradientTransform="translate(136 105) rotate(90) scale(15)">
<stop stop-color="#FF9E9E"/>
<stop offset="1" stop-color="#FFDEDE" stop-opacity="0.6"/>
<stop offset="1" stop-color="#FFDEDE" stop-opacity="0.5"/>
</radialGradient>
<radialGradient id="paint2_radial" cx="0" cy="0" r="1" gradientUnits="userSpaceOnUse" gradientTransform="translate(119 110) rotate(90) scale(15)">
<stop stop-color="#FF9E9E"/>
<stop offset="1" stop-color="#FFDEDE" stop-opacity="0.6"/>
<stop offset="1" stop-color="#FFDEDE" stop-opacity="0.5"/>
</radialGradient>
<radialGradient id="paint3_radial" cx="0" cy="0" r="1" gradientUnits="userSpaceOnUse" gradientTransform="translate(72 144) rotate(90) scale(15)">
<stop stop-color="#FF9E9E"/>
<stop offset="1" stop-color="#FFDEDE" stop-opacity="0.6"/>
<stop offset="1" stop-color="#FFDEDE" stop-opacity="0.5"/>
</radialGradient>
<radialGradient id="paint4_radial" cx="0" cy="0" r="1" gradientUnits="userSpaceOnUse" gradientTransform="translate(149 156) rotate(90) scale(15)">
<stop stop-color="#FF9E9E"/>
<stop offset="1" stop-color="#FFDEDE" stop-opacity="0.6"/>
<stop offset="1" stop-color="#FFDEDE" stop-opacity="0.5"/>
</radialGradient>
<radialGradient id="paint5_radial" cx="0" cy="0" r="1" gradientUnits="userSpaceOnUse" gradientTransform="translate(162 154) rotate(90) scale(15)">
<stop stop-color="#FF9E9E"/>
<stop offset="1" stop-color="#FFDEDE" stop-opacity="0.6"/>
<stop offset="1" stop-color="#FFDEDE" stop-opacity="0.5"/>
</radialGradient>
<radialGradient id="paint6_radial" cx="0" cy="0" r="1" gradientUnits="userSpaceOnUse" gradientTransform="translate(86 155) rotate(90) scale(15)">
<stop stop-color="#FF9E9E"/>
<stop offset="1" stop-color="#FFDEDE" stop-opacity="0.6"/>
<stop offset="1" stop-color="#FFDEDE" stop-opacity="0.5"/>
</radialGradient>
<radialGradient id="paint7_radial" cx="0" cy="0" r="1" gradientUnits="userSpaceOnUse" gradientTransform="translate(111 154) rotate(90) scale(15)">
<stop stop-color="#FF9E9E"/>
<stop offset="1" stop-color="#FFDEDE" stop-opacity="0.6"/>
<stop offset="1" stop-color="#FFDEDE" stop-opacity="0.5"/>
</radialGradient>
<radialGradient id="paint8_radial" cx="0" cy="0" r="1" gradientUnits="userSpaceOnUse" gradientTransform="translate(169 130) rotate(90) scale(15)">
<stop stop-color="#FF9E9E"/>
<stop offset="1" stop-color="#FFDEDE" stop-opacity="0.6"/>
<stop offset="1" stop-color="#FFDEDE" stop-opacity="0.5"/>
</radialGradient>
<radialGradient id="paint9_radial" cx="0" cy="0" r="1" gradientUnits="userSpaceOnUse" gradientTransform="translate(167 148) rotate(90) scale(15)">
<stop stop-color="#FF9E9E"/>
<stop offset="1" stop-color="#FFDEDE" stop-opacity="0.6"/>
<stop offset="1" stop-color="#FFDEDE" stop-opacity="0.5"/>
</radialGradient>
<radialGradient id="paint10_radial" cx="0" cy="0" r="1" gradientUnits="userSpaceOnUse" gradientTransform="translate(143 136) rotate(90) scale(15)">
<stop stop-color="#FF9E9E"/>
<stop offset="1" stop-color="#FFDEDE" stop-opacity="0.6"/>
<stop offset="1" stop-color="#FFDEDE" stop-opacity="0.5"/>
</radialGradient>
<radialGradient id="paint11_radial" cx="0" cy="0" r="1" gradientUnits="userSpaceOnUse" gradientTransform="translate(127 149) rotate(90) scale(15)">
<stop stop-color="#FF9E9E"/>
<stop offset="1" stop-color="#FFDEDE" stop-opacity="0.6"/>
<stop offset="1" stop-color="#FFDEDE" stop-opacity="0.5"/>
</radialGradient>
<radialGradient id="paint12_radial" cx="0" cy="0" r="1" gradientUnits="userSpaceOnUse" gradientTransform="translate(128 119) rotate(90) scale(15)">
<stop stop-color="#FF9E9E"/>
<stop offset="1" stop-color="#FFDEDE" stop-opacity="0.6"/>
<stop offset="1" stop-color="#FFDEDE" stop-opacity="0.5"/>
</radialGradient>
<radialGradient id="paint13_radial" cx="0" cy="0" r="1" gradientUnits="userSpaceOnUse" gradientTransform="translate(152 117) rotate(90) scale(15)">
<stop stop-color="#FF9E9E"/>
<stop offset="1" stop-color="#FFDEDE" stop-opacity="0.6"/>
<stop offset="1" stop-color="#FFDEDE" stop-opacity="0.5"/>
</radialGradient>
<radialGradient id="paint14_radial" cx="0" cy="0" r="1" gradientUnits="userSpaceOnUse" gradientTransform="translate(82 129) rotate(90) scale(15)">
<stop stop-color="#FF9E9E"/>
<stop offset="1" stop-color="#FFDEDE" stop-opacity="0.6"/>
<stop offset="1" stop-color="#FFDEDE" stop-opacity="0.5"/>
</radialGradient>
<radialGradient id="paint15_radial" cx="0" cy="0" r="1" gradientUnits="userSpaceOnUse" gradientTransform="translate(81 142) rotate(90) scale(15)">
<stop stop-color="#FF9E9E"/>
<stop offset="1" stop-color="#FFDEDE" stop-opacity="0.6"/>
<stop offset="1" stop-color="#FFDEDE" stop-opacity="0.5"/>
</radialGradient>
<radialGradient id="paint16_radial" cx="0" cy="0" r="1" gradientUnits="userSpaceOnUse" gradientTransform="translate(102 123) rotate(90) scale(15)">
<stop stop-color="#FF9E9E"/>
<stop offset="1" stop-color="#FFDEDE" stop-opacity="0.6"/>
<stop offset="1" stop-color="#FFDEDE" stop-opacity="0.5"/>
</radialGradient>
<radialGradient id="paint17_radial" cx="0" cy="0" r="1" gradientUnits="userSpaceOnUse" gradientTransform="translate(97 152) rotate(90) scale(15)">
<stop stop-color="#FF9E9E"/>
<stop offset="1" stop-color="#FFDEDE" stop-opacity="0.6"/>
<stop offset="1" stop-color="#FFDEDE" stop-opacity="0.5"/>
</radialGradient>
<radialGradient id="paint18_radial" cx="0" cy="0" r="1" gradientUnits="userSpaceOnUse" gradientTransform="translate(118 138) rotate(90) scale(15)">
<stop stop-color="#FF9E9E"/>
<stop offset="1" stop-color="#FFDEDE" stop-opacity="0.6"/>
<stop offset="1" stop-color="#FFDEDE" stop-opacity="0.5"/>
</radialGradient>
<radialGradient id="paint19_radial" cx="0" cy="0" r="1" gradientUnits="userSpaceOnUse" gradientTransform="translate(63 156) rotate(90) scale(5)">
<stop stop-color="#FF9E9E"/>
<stop offset="1" stop-color="#FFDEDE" stop-opacity="0.6"/>
<stop offset="1" stop-color="#FFDEDE" stop-opacity="0.5"/>
</radialGradient>
<radialGradient id="paint20_radial" cx="0" cy="0" r="1" gradientUnits="userSpaceOnUse" gradientTransform="translate(54 149) rotate(90) scale(5)">
<stop stop-color="#FF9E9E"/>
<stop offset="1" stop-color="#FFDEDE" stop-opacity="0.6"/>
<stop offset="1" stop-color="#FFDEDE" stop-opacity="0.5"/>
</radialGradient>
<radialGradient id="paint21_radial" cx="0" cy="0" r="1" gradientUnits="userSpaceOnUse" gradientTransform="translate(77 159) rotate(90) scale(5)">
<stop stop-color="#FF9E9E"/>
<stop offset="1" stop-color="#FFDEDE" stop-opacity="0.6"/>
<stop offset="1" stop-color="#FFDEDE" stop-opacity="0.5"/>
</radialGradient>
<radialGradient id="paint22_radial" cx="0" cy="0" r="1" gradientUnits="userSpaceOnUse" gradientTransform="translate(82 166) rotate(90) scale(5)">
<stop stop-color="#FF9E9E"/>
<stop offset="1" stop-color="#FFDEDE" stop-opacity="0.6"/>
<stop offset="1" stop-color="#FFDEDE" stop-opacity="0.5"/>
</radialGradient>
<radialGradient id="paint23_radial" cx="0" cy="0" r="1" gradientUnits="userSpaceOnUse" gradientTransform="translate(90 172) rotate(90) scale(5)">
<stop stop-color="#FF9E9E"/>
<stop offset="1" stop-color="#FFDEDE" stop-opacity="0.6"/>
<stop offset="1" stop-color="#FFDEDE" stop-opacity="0.5"/>
</radialGradient>
<radialGradient id="paint24_radial" cx="0" cy="0" r="1" gradientUnits="userSpaceOnUse" gradientTransform="translate(99 170) rotate(90) scale(5)">
<stop stop-color="#FF9E9E"/>
<stop offset="1" stop-color="#FFDEDE" stop-opacity="0.6"/>
<stop offset="1" stop-color="#FFDEDE" stop-opacity="0.5"/>
</radialGradient>
<radialGradient id="paint25_radial" cx="0" cy="0" r="1" gradientUnits="userSpaceOnUse" gradientTransform="translate(106 175) rotate(90) scale(5)">
<stop stop-color="#FF9E9E"/>
<stop offset="1" stop-color="#FFDEDE" stop-opacity="0.6"/>
<stop offset="1" stop-color="#FFDEDE" stop-opacity="0.5"/>
</radialGradient>
<radialGradient id="paint26_radial" cx="0" cy="0" r="1" gradientUnits="userSpaceOnUse" gradientTransform="translate(56 139) rotate(90) scale(5)">
<stop stop-color="#FF9E9E"/>
<stop offset="1" stop-color="#FFDEDE" stop-opacity="0.6"/>
<stop offset="1" stop-color="#FFDEDE" stop-opacity="0.5"/>
</radialGradient>
<radialGradient id="paint27_radial" cx="0" cy="0" r="1" gradientUnits="userSpaceOnUse" gradientTransform="translate(60 131) rotate(90) scale(5)">
<stop stop-color="#FF9E9E"/>
<stop offset="1" stop-color="#FFDEDE" stop-opacity="0.6"/>
<stop offset="1" stop-color="#FFDEDE" stop-opacity="0.5"/>
</radialGradient>
<radialGradient id="paint28_radial" cx="0" cy="0" r="1" gradientUnits="userSpaceOnUse" gradientTransform="translate(68 123) rotate(90) scale(5)">
<stop stop-color="#FF9E9E"/>
<stop offset="1" stop-color="#FFDEDE" stop-opacity="0.6"/>
<stop offset="1" stop-color="#FFDEDE" stop-opacity="0.5"/>
</radialGradient>
<radialGradient id="paint29_radial" cx="0" cy="0" r="1" gradientUnits="userSpaceOnUse" gradientTransform="translate(82 109) rotate(90) scale(5)">
<stop stop-color="#FF9E9E"/>
<stop offset="1" stop-color="#FFDEDE" stop-opacity="0.6"/>
<stop offset="1" stop-color="#FFDEDE" stop-opacity="0.5"/>
</radialGradient>
<radialGradient id="paint30_radial" cx="0" cy="0" r="1" gradientUnits="userSpaceOnUse" gradientTransform="translate(105 104) rotate(90) scale(5)">
<stop stop-color="#FF9E9E"/>
<stop offset="1" stop-color="#FFDEDE" stop-opacity="0.6"/>
<stop offset="1" stop-color="#FFDEDE" stop-opacity="0.5"/>
</radialGradient>
<radialGradient id="paint31_radial" cx="0" cy="0" r="1" gradientUnits="userSpaceOnUse" gradientTransform="translate(96 105) rotate(90) scale(5)">
<stop stop-color="#FF9E9E"/>
<stop offset="1" stop-color="#FFDEDE" stop-opacity="0.6"/>
<stop offset="1" stop-color="#FFDEDE" stop-opacity="0.5"/>
</radialGradient>
<radialGradient id="paint32_radial" cx="0" cy="0" r="1" gradientUnits="userSpaceOnUse" gradientTransform="translate(74 114) rotate(90) scale(5)">
<stop stop-color="#FF9E9E"/>
<stop offset="1" stop-color="#FFDEDE" stop-opacity="0.6"/>
<stop offset="1" stop-color="#FFDEDE" stop-opacity="0.5"/>
</radialGradient>
<radialGradient id="paint33_radial" cx="0" cy="0" r="1" gradientUnits="userSpaceOnUse" gradientTransform="translate(66 130) rotate(90) scale(5)">
<stop stop-color="#FF9E9E"/>
<stop offset="1" stop-color="#FFDEDE" stop-opacity="0.6"/>
<stop offset="1" stop-color="#FFDEDE" stop-opacity="0.5"/>
</radialGradient>
<radialGradient id="paint34_radial" cx="0" cy="0" r="1" gradientUnits="userSpaceOnUse" gradientTransform="translate(64 139) rotate(90) scale(5)">
<stop stop-color="#FF9E9E"/>
<stop offset="1" stop-color="#FFDEDE" stop-opacity="0.6"/>
<stop offset="1" stop-color="#FFDEDE" stop-opacity="0.5"/>
</radialGradient>
<radialGradient id="paint35_radial" cx="0" cy="0" r="1" gradientUnits="userSpaceOnUse" gradientTransform="translate(153 174) rotate(90) scale(5)">
<stop stop-color="#FF9E9E"/>
<stop offset="1" stop-color="#FFDEDE" stop-opacity="0.6"/>
<stop offset="1" stop-color="#FFDEDE" stop-opacity="0.5"/>
</radialGradient>
<radialGradient id="paint36_radial" cx="0" cy="0" r="1" gradientUnits="userSpaceOnUse" gradientTransform="translate(165 169) rotate(90) scale(5)">
<stop stop-color="#FF9E9E"/>
<stop offset="1" stop-color="#FFDEDE" stop-opacity="0.6"/>
<stop offset="1" stop-color="#FFDEDE" stop-opacity="0.5"/>
</radialGradient>
<radialGradient id="paint37_radial" cx="0" cy="0" r="1" gradientUnits="userSpaceOnUse" gradientTransform="translate(180 157) rotate(90) scale(5)">
<stop stop-color="#FF9E9E"/>
<stop offset="1" stop-color="#FFDEDE" stop-opacity="0.6"/>
<stop offset="1" stop-color="#FFDEDE" stop-opacity="0.5"/>
</radialGradient>
<radialGradient id="paint38_radial" cx="0" cy="0" r="1" gradientUnits="userSpaceOnUse" gradientTransform="translate(188 148) rotate(90) scale(5)">
<stop stop-color="#FF9E9E"/>
<stop offset="1" stop-color="#FFDEDE" stop-opacity="0.6"/>
<stop offset="1" stop-color="#FFDEDE" stop-opacity="0.5"/>
</radialGradient>
<radialGradient id="paint39_radial" cx="0" cy="0" r="1" gradientUnits="userSpaceOnUse" gradientTransform="translate(185 139) rotate(90) scale(5)">
<stop stop-color="#FF9E9E"/>
<stop offset="1" stop-color="#FFDEDE" stop-opacity="0.6"/>
<stop offset="1" stop-color="#FFDEDE" stop-opacity="0.5"/>
</radialGradient>
<radialGradient id="paint40_radial" cx="0" cy="0" r="1" gradientUnits="userSpaceOnUse" gradientTransform="translate(191 133) rotate(90) scale(5)">
<stop stop-color="#FF9E9E"/>
<stop offset="1" stop-color="#FFDEDE" stop-opacity="0.6"/>
<stop offset="1" stop-color="#FFDEDE" stop-opacity="0.5"/>
</radialGradient>
<radialGradient id="paint41_radial" cx="0" cy="0" r="1" gradientUnits="userSpaceOnUse" gradientTransform="translate(188 123) rotate(90) scale(5)">
<stop stop-color="#FF9E9E"/>
<stop offset="1" stop-color="#FFDEDE" stop-opacity="0.6"/>
<stop offset="1" stop-color="#FFDEDE" stop-opacity="0.5"/>
</radialGradient>
<radialGradient id="paint42_radial" cx="0" cy="0" r="1" gradientUnits="userSpaceOnUse" gradientTransform="translate(183 116) rotate(90) scale(5)">
<stop stop-color="#FF9E9E"/>
<stop offset="1" stop-color="#FFDEDE" stop-opacity="0.6"/>
<stop offset="1" stop-color="#FFDEDE" stop-opacity="0.5"/>
</radialGradient>
<radialGradient id="paint43_radial" cx="0" cy="0" r="1" gradientUnits="userSpaceOnUse" gradientTransform="translate(177 113) rotate(90) scale(5)">
<stop stop-color="#FF9E9E"/>
<stop offset="1" stop-color="#FFDEDE" stop-opacity="0.6"/>
<stop offset="1" stop-color="#FFDEDE" stop-opacity="0.5"/>
</radialGradient>
<radialGradient id="paint44_radial" cx="0" cy="0" r="1" gradientUnits="userSpaceOnUse" gradientTransform="translate(168 111) rotate(90) scale(5)">
<stop stop-color="#FF9E9E"/>
<stop offset="1" stop-color="#FFDEDE" stop-opacity="0.6"/>
<stop offset="1" stop-color="#FFDEDE" stop-opacity="0.5"/>
</radialGradient>
<radialGradient id="paint45_radial" cx="0" cy="0" r="1" gradientUnits="userSpaceOnUse" gradientTransform="translate(167 98) rotate(90) scale(5)">
<stop stop-color="#FF9E9E"/>
<stop offset="1" stop-color="#FFDEDE" stop-opacity="0.6"/>
<stop offset="1" stop-color="#FFDEDE" stop-opacity="0.5"/>
</radialGradient>
<radialGradient id="paint46_radial" cx="0" cy="0" r="1" gradientUnits="userSpaceOnUse" gradientTransform="translate(157 100) rotate(90) scale(5)">
<stop stop-color="#FF9E9E"/>
<stop offset="1" stop-color="#FFDEDE" stop-opacity="0.6"/>
<stop offset="1" stop-color="#FFDEDE" stop-opacity="0.5"/>
</radialGradient>
<radialGradient id="paint47_radial" cx="0" cy="0" r="1" gradientUnits="userSpaceOnUse" gradientTransform="translate(152 99) rotate(90) scale(5)">
<stop stop-color="#FF9E9E"/>
<stop offset="1" stop-color="#FFDEDE" stop-opacity="0.6"/>
<stop offset="1" stop-color="#FFDEDE" stop-opacity="0.5"/>
</radialGradient>
<radialGradient id="paint48_radial" cx="0" cy="0" r="1" gradientUnits="userSpaceOnUse" gradientTransform="translate(142 100) rotate(90) scale(5)">
<stop stop-color="#FF9E9E"/>
<stop offset="1" stop-color="#FFDEDE" stop-opacity="0.6"/>
<stop offset="1" stop-color="#FFDEDE" stop-opacity="0.5"/>
</radialGradient>
<radialGradient id="paint49_radial" cx="0" cy="0" r="1" gradientUnits="userSpaceOnUse" gradientTransform="translate(139 90) rotate(90) scale(5)">
<stop stop-color="#FF9E9E"/>
<stop offset="1" stop-color="#FFDEDE" stop-opacity="0.6"/>
<stop offset="1" stop-color="#FFDEDE" stop-opacity="0.5"/>
</radialGradient>
<radialGradient id="paint50_radial" cx="0" cy="0" r="1" gradientUnits="userSpaceOnUse" gradientTransform="translate(128 90) rotate(90) scale(5)">
<stop stop-color="#FF9E9E"/>
<stop offset="1" stop-color="#FFDEDE" stop-opacity="0.6"/>
<stop offset="1" stop-color="#FFDEDE" stop-opacity="0.5"/>
</radialGradient>
<radialGradient id="paint51_radial" cx="0" cy="0" r="1" gradientUnits="userSpaceOnUse" gradientTransform="translate(115 92) rotate(90) scale(5)">
<stop stop-color="#FF9E9E"/>
<stop offset="1" stop-color="#FFDEDE" stop-opacity="0.6"/>
<stop offset="1" stop-color="#FFDEDE" stop-opacity="0.5"/>
</radialGradient>
<radialGradient id="paint52_radial" cx="0" cy="0" r="1" gradientUnits="userSpaceOnUse" gradientTransform="translate(106 97) rotate(90) scale(5)">
<stop stop-color="#FF9E9E"/>
<stop offset="1" stop-color="#FFDEDE" stop-opacity="0.6"/>
<stop offset="1" stop-color="#FFDEDE" stop-opacity="0.5"/>
</radialGradient>
<radialGradient id="paint53_radial" cx="0" cy="0" r="1" gradientUnits="userSpaceOnUse" gradientTransform="translate(119 94) rotate(90) scale(5)">
<stop stop-color="#FF9E9E"/>
<stop offset="1" stop-color="#FFDEDE" stop-opacity="0.6"/>
<stop offset="1" stop-color="#FFDEDE" stop-opacity="0.5"/>
</radialGradient>
<radialGradient id="paint54_radial" cx="0" cy="0" r="1" gradientUnits="userSpaceOnUse" gradientTransform="translate(88 109) rotate(90) scale(5)">
<stop stop-color="#FF9E9E"/>
<stop offset="1" stop-color="#FFDEDE" stop-opacity="0.6"/>
<stop offset="1" stop-color="#FFDEDE" stop-opacity="0.5"/>
</radialGradient>
<radialGradient id="paint55_radial" cx="0" cy="0" r="1" gradientUnits="userSpaceOnUse" gradientTransform="translate(135 103) rotate(90) scale(5)">
<stop stop-color="#FF9E9E"/>
<stop offset="1" stop-color="#FFDEDE" stop-opacity="0.6"/>
<stop offset="1" stop-color="#FFDEDE" stop-opacity="0.5"/>
</radialGradient>
<radialGradient id="paint56_radial" cx="0" cy="0" r="1" gradientUnits="userSpaceOnUse" gradientTransform="translate(118 106) rotate(90) scale(5)">
<stop stop-color="#FF9E9E"/>
<stop offset="1" stop-color="#FFDEDE" stop-opacity="0.6"/>
<stop offset="1" stop-color="#FFDEDE" stop-opacity="0.5"/>
</radialGradient>
</defs>
</svg>
