<svg width="220" height="60" viewBox="0 0 220 60" fill="none" xmlns="http://www.w3.org/2000/svg">
<rect width="220" height="60" rx="10" fill="#45B8C8"/>
<path d="M67.6344 37.224C69.2984 37.224 70.7704 36.568 71.6024 35.768V30.2H67.1704V32.536H69.0584V34.456C68.8024 34.648 68.3544 34.76 67.9384 34.76C65.7144 34.76 64.6584 33.384 64.6584 31.016C64.6584 28.696 65.9224 27.32 67.6824 27.32C68.6744 27.32 69.2984 27.72 69.8904 28.248L71.3944 26.424C70.5784 25.608 69.3304 24.872 67.5864 24.872C64.4024 24.872 61.7304 27.144 61.7304 31.112C61.7304 35.144 64.3384 37.224 67.6344 37.224ZM77.7368 37.224C80.0408 37.224 82.1848 35.464 82.1848 32.44C82.1848 29.432 80.0408 27.672 77.7368 27.672C75.4168 27.672 73.2728 29.432 73.2728 32.44C73.2728 35.464 75.4168 37.224 77.7368 37.224ZM77.7368 34.92C76.6648 34.92 76.1848 33.96 76.1848 32.44C76.1848 30.936 76.6648 29.976 77.7368 29.976C78.7928 29.976 79.2728 30.936 79.2728 32.44C79.2728 33.96 78.7928 34.92 77.7368 34.92ZM91.2126 37.224C92.1406 37.224 92.7966 37.032 93.2766 36.888L92.8286 34.824C92.6046 34.904 92.2846 35 91.9966 35C91.3246 35 90.8446 34.6 90.8446 33.592V30.12H92.9886V27.896H90.8446V25.48H88.4926L88.1726 27.896L86.7646 28.008V30.12H87.9966V33.624C87.9966 35.768 88.9246 37.224 91.2126 37.224ZM98.3462 37.224C100.65 37.224 102.794 35.464 102.794 32.44C102.794 29.432 100.65 27.672 98.3462 27.672C96.0262 27.672 93.8822 29.432 93.8822 32.44C93.8822 35.464 96.0262 37.224 98.3462 37.224ZM98.3462 34.92C97.2742 34.92 96.7942 33.96 96.7942 32.44C96.7942 30.936 97.2742 29.976 98.3462 29.976C99.4022 29.976 99.8822 30.936 99.8822 32.44C99.8822 33.96 99.4022 34.92 98.3462 34.92ZM108.238 37H111.086V30.92C111.614 30.36 112.11 30.104 112.526 30.104C113.246 30.104 113.582 30.456 113.582 31.72V37H116.43V30.92C116.974 30.36 117.47 30.104 117.886 30.104C118.606 30.104 118.926 30.456 118.926 31.72V37H121.774V31.368C121.774 29.096 120.91 27.672 118.926 27.672C117.71 27.672 116.862 28.376 116.078 29.176C115.614 28.2 114.846 27.672 113.582 27.672C112.35 27.672 111.566 28.296 110.814 29.048H110.766L110.558 27.896H108.238V37ZM126.308 37.224C127.316 37.224 128.164 36.76 128.916 36.088H128.996L129.188 37H131.508V31.832C131.508 28.984 130.18 27.672 127.828 27.672C126.404 27.672 125.108 28.152 123.908 28.872L124.9 30.744C125.812 30.232 126.564 29.944 127.284 29.944C128.212 29.944 128.596 30.376 128.66 31.112C125.108 31.496 123.604 32.536 123.604 34.456C123.604 35.976 124.628 37.224 126.308 37.224ZM127.284 35.016C126.692 35.016 126.308 34.76 126.308 34.232C126.308 33.592 126.884 33.064 128.66 32.84V34.296C128.244 34.744 127.86 35.016 127.284 35.016ZM133.707 37H136.507V34.744L137.563 33.544L139.531 37H142.619L139.227 31.688L142.395 27.896H139.275L136.587 31.32H136.507V24.216H133.707V37ZM147.428 37.224C148.484 37.224 149.732 36.856 150.676 36.184L149.732 34.472C149.076 34.856 148.468 35.048 147.812 35.048C146.66 35.048 145.796 34.536 145.54 33.288H150.884C150.948 33.064 151.012 32.568 151.012 32.056C151.012 29.576 149.732 27.672 147.108 27.672C144.916 27.672 142.788 29.496 142.788 32.44C142.788 35.464 144.804 37.224 147.428 37.224ZM145.492 31.416C145.684 30.344 146.372 29.848 147.156 29.848C148.196 29.848 148.596 30.52 148.596 31.416H145.492ZM152.832 37H155.68V31.8C156.144 30.6 156.96 30.168 157.632 30.168C158.032 30.168 158.304 30.232 158.64 30.312L159.104 27.864C158.848 27.752 158.544 27.672 158 27.672C157.088 27.672 156.08 28.264 155.408 29.48H155.36L155.152 27.896H152.832V37Z" fill="white"/>
</svg>
