<svg width="380" height="74" viewBox="0 0 380 74" fill="none" xmlns="http://www.w3.org/2000/svg">
<path d="M13.748 27.85H17.748C21.998 27.85 24.248 29 24.248 32.5C24.248 36 21.998 37.85 17.748 37.85H13.748V27.85ZM34.898 58L26.598 43.25C30.448 41.45 32.998 37.95 32.998 32.5C32.998 23.5 26.398 20.8 18.448 20.8H4.79805V58H13.748V44.9H18.048L24.898 58H34.898ZM51.7625 58.7C55.1125 58.7 59.0125 57.55 61.9625 55.45L59.0125 50.1C56.9625 51.3 55.0625 51.9 53.0125 51.9C49.4125 51.9 46.7125 50.3 45.9125 46.4H62.6125C62.8125 45.75 63.0125 44.15 63.0125 42.6C63.0125 34.8 59.0125 28.85 50.8125 28.85C43.9125 28.85 37.3125 34.55 37.3125 43.8C37.3125 53.2 43.6125 58.7 51.7625 58.7ZM45.7625 40.6C46.3625 37.2 48.5125 35.65 50.9625 35.65C54.2125 35.65 55.4625 37.75 55.4625 40.6H45.7625ZM75.2629 58.7C78.4129 58.7 81.0629 57.25 83.4129 55.15H83.6129L84.2629 58H91.5129V41.85C91.5129 32.95 87.3629 28.85 80.0129 28.85C75.5629 28.85 71.5129 30.35 67.7629 32.6L70.8629 38.45C73.7129 36.85 76.0629 35.95 78.3129 35.95C81.2129 35.95 82.4129 37.3 82.6129 39.6C71.5129 40.8 66.8129 44.05 66.8129 50.05C66.8129 54.8 70.0129 58.7 75.2629 58.7ZM78.3129 51.8C76.4629 51.8 75.2629 51 75.2629 49.35C75.2629 47.35 77.0629 45.75 82.6129 45V49.55C81.3129 50.95 80.1129 51.8 78.3129 51.8ZM108.585 58.7C111.285 58.7 114.035 57.25 116.035 55.25H116.235L116.885 58H124.135V18.05H115.185V27.55L115.535 31.8C113.685 30 111.835 28.85 108.685 28.85C102.785 28.85 96.9352 34.45 96.9352 43.8C96.9352 53.05 101.485 58.7 108.585 58.7ZM110.935 51.4C107.885 51.4 106.085 49.1 106.085 43.65C106.085 38.4 108.335 36.1 110.785 36.1C112.285 36.1 113.835 36.55 115.185 37.8V49C113.985 50.85 112.635 51.4 110.935 51.4ZM131.295 58H140.145V39C141.845 37.25 143.395 36.45 144.695 36.45C146.945 36.45 147.945 37.6 147.945 41.5V58H156.895V39C158.595 37.25 160.145 36.45 161.445 36.45C163.695 36.45 164.695 37.6 164.695 41.5V58H173.595V40.4C173.595 33.3 170.895 28.85 164.695 28.85C160.895 28.85 158.245 31.05 155.795 33.55C154.345 30.5 151.945 28.85 147.995 28.85C144.145 28.85 141.695 30.8 139.345 33.15H139.145L138.545 29.55H131.295V58ZM193.413 58.7C196.763 58.7 200.663 57.55 203.613 55.45L200.663 50.1C198.613 51.3 196.713 51.9 194.663 51.9C191.063 51.9 188.363 50.3 187.563 46.4H204.263C204.463 45.75 204.663 44.15 204.663 42.6C204.663 34.8 200.663 28.85 192.463 28.85C185.563 28.85 178.963 34.55 178.963 43.8C178.963 53.2 185.263 58.7 193.413 58.7ZM187.413 40.6C188.013 37.2 190.163 35.65 192.613 35.65C195.863 35.65 197.113 37.75 197.113 40.6H187.413ZM222.474 58H231.424V45.65H235.774C243.624 45.65 250.474 41.75 250.474 32.9C250.474 23.7 243.724 20.8 235.524 20.8H222.474V58ZM231.424 38.6V27.85H235.074C239.374 27.85 241.774 29.15 241.774 32.9C241.774 36.55 239.674 38.6 235.324 38.6H231.424ZM264.2 58.7C266.15 58.7 267.65 58.35 268.6 57.95L267.55 51.4C267.05 51.5 266.85 51.5 266.55 51.5C265.85 51.5 264.95 50.95 264.95 49.1V18.05H256.1V48.75C256.1 54.7 258.1 58.7 264.2 58.7ZM279.902 58.7C283.052 58.7 285.702 57.25 288.052 55.15H288.252L288.902 58H296.152V41.85C296.152 32.95 292.002 28.85 284.652 28.85C280.202 28.85 276.152 30.35 272.402 32.6L275.502 38.45C278.352 36.85 280.702 35.95 282.952 35.95C285.852 35.95 287.052 37.3 287.252 39.6C276.152 40.8 271.452 44.05 271.452 50.05C271.452 54.8 274.652 58.7 279.902 58.7ZM282.952 51.8C281.102 51.8 279.902 51 279.902 49.35C279.902 47.35 281.702 45.75 287.252 45V49.55C285.952 50.95 284.752 51.8 282.952 51.8ZM303.024 58H311.874V39C313.624 37.35 314.824 36.45 316.824 36.45C319.074 36.45 320.124 37.6 320.124 41.5V58H329.024V40.4C329.024 33.3 326.374 28.85 320.174 28.85C316.324 28.85 313.424 30.8 311.074 33.1H310.874L310.274 29.55H303.024V58ZM347.134 58.7C350.034 58.7 352.084 58.1 353.584 57.65L352.184 51.25C351.484 51.45 350.484 51.75 349.584 51.75C347.484 51.75 345.984 50.5 345.984 47.35V36.5H352.684V29.55H345.984V22.05H338.584L337.584 29.55L333.234 29.9V36.5H337.084V47.45C337.084 54.2 339.984 58.7 347.134 58.7ZM366.114 58.7C373.864 58.7 377.964 54.65 377.964 49.4C377.964 44.25 374.014 42.2 370.464 40.85C367.514 39.8 364.914 39.15 364.914 37.45C364.914 36.1 365.914 35.4 367.914 35.4C369.814 35.4 371.814 36.4 373.814 37.8L377.814 32.5C375.314 30.65 372.114 28.85 367.614 28.85C361.014 28.85 356.614 32.5 356.614 37.9C356.614 42.6 360.614 44.9 364.014 46.25C366.914 47.4 369.664 48.2 369.664 49.9C369.664 51.3 368.664 52.15 366.314 52.15C364.064 52.15 361.714 51.15 359.114 49.15L355.164 54.7C358.014 57.1 362.414 58.7 366.114 58.7Z" fill="black"/>
<path d="M226.491 16.9365L223 23.4805" stroke="black" stroke-width="0.7"/>
<path d="M226.291 17.5391L232.523 14.7292" stroke="black" stroke-width="0.7"/>
<path d="M226.79 10.4629L227.209 17.3547" stroke="black" stroke-width="0.7"/>
<path d="M236.197 10L231.219 15.3513" stroke="black" stroke-width="0.7"/>
<path d="M242.801 46.417L239.679 39.6891" stroke="black" stroke-width="0.7"/>
<path d="M242.441 45.8945L240.932 52.5619" stroke="black" stroke-width="0.7"/>
<path d="M247.79 50.5532L242.035 46.7383" stroke="black" stroke-width="0.7"/>
<path d="M242.496 58.3428L241.221 51.1459" stroke="black" stroke-width="0.7"/>
<path d="M269.528 16.627L263 20.1482" stroke="black" stroke-width="0.7"/>
<path d="M269.028 17.0186L275.774 18.1238" stroke="black" stroke-width="0.7"/>
<path d="M273.357 11.3984L269.895 17.3723" stroke="black" stroke-width="0.7"/>
<path d="M281.45 16.2153L274.343 17.9206" stroke="black" stroke-width="0.7"/>
<path d="M288.657 26.1562L290.47 33.3486" stroke="black" stroke-width="0.7"/>
<path d="M288.914 26.7373L291.64 20.4685" stroke="black" stroke-width="0.7"/>
<path d="M284.527 21.1621L289.469 25.9838" stroke="black" stroke-width="0.7"/>
<path d="M291.182 14.4971L291.092 21.8055" stroke="black" stroke-width="0.7"/>
<path d="M317.782 38.3438L316.742 30.9998" stroke="black" stroke-width="0.7"/>
<path d="M317.588 37.7388L314.213 43.6831" stroke="black" stroke-width="0.7"/>
<path d="M321.359 43.748L316.956 38.4295" stroke="black" stroke-width="0.7"/>
<path d="M314.035 49.6699L314.899 42.4123" stroke="black" stroke-width="0.7"/>
<path d="M363.005 25.9258L362.458 33.3228" stroke="black" stroke-width="0.7"/>
<path d="M363.065 26.5576L367.629 21.4678" stroke="black" stroke-width="0.7"/>
<path d="M360.66 19.8843L363.83 26.018" stroke="black" stroke-width="0.7"/>
<path d="M369.077 15.6567L366.687 22.5641" stroke="black" stroke-width="0.7"/>
<path d="M32.9307 21.3823L27 25.8367" stroke="black" stroke-width="0.7"/>
<path d="M32.4944 21.8438L39.3297 21.9318" stroke="black" stroke-width="0.7"/>
<path d="M35.9377 15.6416L33.4041 22.0645" stroke="black" stroke-width="0.7"/>
<path d="M44.6589 19.1992L37.885 21.9442" stroke="black" stroke-width="0.7"/>
<path d="M30.3013 40.0361L24.8561 34.9998" stroke="black" stroke-width="0.7"/>
<path d="M29.769 39.6899L30.9075 46.4304" stroke="black" stroke-width="0.7"/>
<path d="M36.488 41.9658L29.7151 40.6243" stroke="black" stroke-width="0.7"/>
<path d="M34.5513 51.1831L30.6367 45.0108" stroke="black" stroke-width="0.7"/>
<path d="M15.9897 31.9102L9.0001 29.4283" stroke="black" stroke-width="0.7"/>
<path d="M15.364 31.8013L19.0675 37.547" stroke="black" stroke-width="0.7"/>
<path d="M22.436 31.2446L15.6827 32.6819" stroke="black" stroke-width="0.7"/>
<path d="M24.2898 40.479L18.259 36.3498" stroke="black" stroke-width="0.7"/>
<path d="M58.8862 28.7168L58.0757 36.0896" stroke="black" stroke-width="0.7"/>
<path d="M58.9241 29.3506L63.6659 24.4267" stroke="black" stroke-width="0.7"/>
<path d="M56.7581 22.5952L59.7076 28.8381" stroke="black" stroke-width="0.7"/>
<path d="M65.3201 18.6704L62.686 25.4882" stroke="black" stroke-width="0.7"/>
<path d="M86.5625 28.2178L81.5167 33.6542" stroke="black" stroke-width="0.7"/>
<path d="M86.2148 28.749L92.9572 27.6223" stroke="black" stroke-width="0.7"/>
<path d="M88.5027 22.0342L87.1494 28.8048" stroke="black" stroke-width="0.7"/>
<path d="M97.7168 23.9868L91.5377 27.8906" stroke="black" stroke-width="0.7"/>
<path d="M111.562 23.7964L117.4 28.3714" stroke="black" stroke-width="0.7"/>
<path d="M112.12 24.0986L110.435 17.4736" stroke="black" stroke-width="0.7"/>
<path d="M105.238 22.3784L112.098 23.1625" stroke="black" stroke-width="0.7"/>
<path d="M106.416 13.0337L110.821 18.8658" stroke="black" stroke-width="0.7"/>
<path d="M111.701 49.2822L114.159 56.2803" stroke="black" stroke-width="0.7"/>
<path d="M112.009 49.8374L114.155 43.347" stroke="black" stroke-width="0.7"/>
<path d="M107.135 44.6836L112.494 49.0367" stroke="black" stroke-width="0.7"/>
<path d="M113.157 37.4419L113.731 44.7283" stroke="black" stroke-width="0.7"/>
<path d="M162.266 49.0835L169.682 49.157" stroke="black" stroke-width="0.7"/>
<path d="M162.893 48.9829L157.522 44.7541" stroke="black" stroke-width="0.7"/>
<path d="M156.386 51.8101L162.305 48.2545" stroke="black" stroke-width="0.7"/>
<path d="M151.63 43.6807L158.676 45.6238" stroke="black" stroke-width="0.7"/>
<path d="M140.482 27.1411L135 32.1369" stroke="black" stroke-width="0.7"/>
<path d="M140.092 27.6416L146.905 27.0822" stroke="black" stroke-width="0.7"/>
<path d="M142.933 21.1416L141.018 27.7755" stroke="black" stroke-width="0.7"/>
<path d="M151.951 23.8574L145.468 27.2313" stroke="black" stroke-width="0.7"/>
<path d="M178.841 32.7856L185.059 36.8292" stroke="black" stroke-width="0.7"/>
<path d="M179.424 33.0376L177.163 26.5866" stroke="black" stroke-width="0.7"/>
<path d="M172.417 31.9297L179.32 32.1072" stroke="black" stroke-width="0.7"/>
<path d="M172.768 22.5176L177.67 27.9394" stroke="black" stroke-width="0.7"/>
<path d="M204.716 30.6582L200 36.3832" stroke="black" stroke-width="0.7"/>
<path d="M204.4 31.209L211.064 29.686" stroke="black" stroke-width="0.7"/>
<path d="M206.288 24.3711L205.337 31.2098" stroke="black" stroke-width="0.7"/>
<path d="M215.601 25.7759L209.663 30.0378" stroke="black" stroke-width="0.7"/>
<path d="M286.229 45.8706L292.666 42.1856" stroke="black" stroke-width="0.7"/>
<path d="M286.719 45.4668L279.947 44.5323" stroke="black" stroke-width="0.7"/>
<path d="M282.533 51.1943L285.843 45.135" stroke="black" stroke-width="0.7"/>
<path d="M274.32 46.5835L281.382 44.6992" stroke="black" stroke-width="0.7"/>
<path d="M346.276 44.6045L339 46.0455" stroke="black" stroke-width="0.7"/>
<path d="M345.682 44.8311L351.803 47.8753" stroke="black" stroke-width="0.7"/>
<path d="M351.475 40.7363L346.406 45.4245" stroke="black" stroke-width="0.7"/>
<path d="M357.79 47.7241L350.496 47.2592" stroke="black" stroke-width="0.7"/>
<path d="M306.552 25.1353L305.088 32.4066" stroke="black" stroke-width="0.7"/>
<path d="M306.533 25.77L311.694 21.2878" stroke="black" stroke-width="0.7"/>
<path d="M304.977 18.8486L307.359 25.3292" stroke="black" stroke-width="0.7"/>
<path d="M313.854 15.7017L310.624 22.2579" stroke="black" stroke-width="0.7"/>
</svg>
