<svg width="627" height="255" viewBox="0 0 627 255" fill="none" xmlns="http://www.w3.org/2000/svg">
<g filter="url(#filter0_d)">
<rect x="4" y="4" width="619" height="247" rx="5" fill="white"/>
</g>
<path d="M67.4615 25.0304C68.6382 23.1621 71.3618 23.1621 72.5385 25.0303L103.477 74.1512C104.735 76.1489 103.299 78.75 100.938 78.75H39.0619C36.7009 78.75 35.2652 76.1489 36.5234 74.1512L67.4615 25.0304Z" fill="#FF0000"/>
<path d="M68.5567 59.25H71.4317L72.0817 50.8L72.2317 46.85H67.7567L67.9067 50.8L68.5567 59.25ZM69.9817 66.35C71.5317 66.35 72.6317 65.125 72.6317 63.575C72.6317 62.05 71.5317 60.825 69.9817 60.825C68.4567 60.825 67.3567 62.05 67.3567 63.575C67.3567 65.125 68.4567 66.35 69.9817 66.35Z" fill="white"/>
<path d="M37.5 113.45C37.5 111.55 38.75 110.375 40.425 110.375C42.125 110.375 43.375 111.55 43.375 113.45C43.375 115.375 42.125 116.55 40.425 116.55C38.75 116.55 37.5 115.375 37.5 113.45ZM50.025 111.95V114.925H46.325C46.45 114.475 46.5 113.95 46.5 113.45C46.5 112.925 46.425 112.425 46.325 111.95H50.025ZM50.025 117.55V122.975H53.325V106.125H50.025V109.325H44.9C43.775 108.175 42.225 107.5 40.425 107.5C37.025 107.5 34.375 110.025 34.375 113.45C34.375 116.9 37.025 119.425 40.425 119.425C42.225 119.425 43.825 118.725 44.95 117.55H50.025ZM41.45 126.125V121.325H38.15V128.75H53.85V126.125H41.45ZM73.023 111.5V113.475H67.923V115.95H73.023V117.675H76.323V106.125H73.023V109.025H68.798C68.898 108.375 68.948 107.7 68.948 107H58.673V109.625H65.323C64.923 112.325 62.573 114.525 57.348 115.55L58.448 118.2C63.498 117.1 66.748 114.925 68.148 111.5H73.023ZM64.473 126.325V124.875H76.323V118.525H61.148V121.125H73.023V122.425H61.173V128.925H76.798V126.325H64.473ZM95.8461 106.1V129.2H99.1461V106.1H95.8461ZM86.7711 107.725C83.2961 107.725 80.7211 110.875 80.7211 115.925C80.7211 121 83.2961 124.175 86.7711 124.175C90.2461 124.175 92.8211 121 92.8211 115.925C92.8211 110.875 90.2461 107.725 86.7711 107.725ZM86.7711 110.7C88.4711 110.7 89.6461 112.525 89.6461 115.925C89.6461 119.35 88.4711 121.175 86.7711 121.175C85.0711 121.175 83.8961 119.35 83.8961 115.925C83.8961 112.525 85.0711 110.7 86.7711 110.7ZM124.508 106.1V129.2H127.808V106.1H124.508ZM109.858 107.95V123.825H121.208V107.95H117.933V113.525H113.133V107.95H109.858ZM113.133 116.1H117.933V121.2H113.133V116.1ZM149.406 115.2C150.056 112.825 150.056 110.875 150.056 109.05V107.15H134.106V109.75H146.756C146.756 111.275 146.681 112.825 146.156 114.875L149.406 115.2ZM142.006 126.675C138.906 126.675 137.131 126.05 137.131 124.825C137.131 123.575 138.906 122.95 142.006 122.95C145.131 122.95 146.906 123.575 146.906 124.825C146.906 126.05 145.131 126.675 142.006 126.675ZM142.006 120.475C137.056 120.475 133.856 122.125 133.856 124.825C133.856 127.5 137.056 129.15 142.006 129.15C146.981 129.15 150.181 127.5 150.181 124.825C150.181 122.125 146.981 120.475 142.006 120.475ZM142.756 116.425V112.4H139.456V116.425H131.781V119.025H152.506V116.425H142.756ZM155.604 108.975V111.6H161.429C161.004 116.125 159.054 119.45 154.429 122.15L156.354 124.45C162.779 120.7 164.679 115.425 164.679 108.975H155.604ZM171.304 106.125V114.8H169.254V106.725H166.179V128.175H169.254V117.45H171.304V129.15H174.454V106.125H171.304ZM189.777 123.925V120.5H196.752V117.85H183.402V115.275H196.227V107.6H180.102V110.225H192.977V112.7H180.127V120.5H186.477V123.925H177.727V126.625H198.577V123.925H189.777ZM222.339 117.825H225.639V106.125H222.339V109.5H218.139V112.125H222.339V117.825ZM220.139 115.025C216.539 113.925 214.964 111.25 214.964 108.525V106.875H211.639V108.525C211.639 111.45 210.039 114.275 206.214 115.425L207.914 118C210.539 117.175 212.339 115.475 213.364 113.325C214.339 115.25 216.039 116.775 218.464 117.55L220.139 115.025ZM213.739 126.325V124.975H225.639V118.8H210.464V121.325H222.389V122.6H210.489V128.9H226.289V126.325H213.739ZM241.888 111.675V114.35H245.338V119.825H248.638V106.125H245.338V111.675H241.888ZM243.263 116.625C239.763 115.475 238.163 112.775 238.063 110.15H242.538V107.5H230.163V110.15H234.688C234.588 113.025 232.913 115.95 229.263 117.225L230.938 119.825C233.613 118.925 235.438 117.05 236.438 114.725C237.438 116.75 239.163 118.375 241.663 119.2L243.263 116.625ZM240.863 126.675C237.838 126.675 236.263 126.05 236.263 124.75C236.263 123.45 237.838 122.825 240.863 122.825C243.863 122.825 245.438 123.45 245.438 124.75C245.438 126.05 243.863 126.675 240.863 126.675ZM240.863 120.325C235.963 120.325 232.963 121.95 232.963 124.75C232.963 127.55 235.963 129.175 240.863 129.175C245.738 129.175 248.738 127.55 248.738 124.75C248.738 121.95 245.738 120.325 240.863 120.325ZM261.586 118.1H265.986V115.45H257.261V110.8H265.836V108.175H253.961V118.1H258.286V121.925C256.261 121.975 254.286 121.975 252.486 121.975L252.886 124.675C257.161 124.675 262.311 124.625 267.236 123.85L267.036 121.45C265.286 121.625 263.436 121.75 261.586 121.85V118.1ZM268.286 106.125V129.2H271.586V106.125H268.286ZM281.684 121.175C280.009 121.175 278.884 119.35 278.884 115.925C278.884 112.525 280.009 110.7 281.684 110.7C283.384 110.7 284.509 112.525 284.509 115.925C284.509 119.35 283.384 121.175 281.684 121.175ZM291.409 106.1V114.4H287.559C287.109 110.25 284.784 107.725 281.684 107.725C278.259 107.725 275.734 110.875 275.734 115.925C275.734 121 278.259 124.175 281.684 124.175C284.884 124.175 287.234 121.475 287.584 117.075H291.409V129.2H294.709V106.1H291.409ZM323.171 106.125H319.846V119.15H323.171V106.125ZM310.621 110.05C312.371 110.05 313.671 111.1 313.671 112.825C313.671 114.55 312.371 115.6 310.621 115.6C308.871 115.6 307.596 114.55 307.596 112.825C307.596 111.1 308.871 110.05 310.621 110.05ZM310.621 118.35C314.221 118.35 316.896 116.05 316.896 112.825C316.896 109.6 314.221 107.3 310.621 107.3C307.071 107.3 304.371 109.6 304.371 112.825C304.371 116.05 307.071 118.35 310.621 118.35ZM320.846 120.1H317.596V120.875C317.596 122.575 316.821 124.5 314.971 125.875C313.146 124.6 312.421 122.7 312.421 120.875V120.1H309.221V120.875C309.221 123.1 307.971 125.375 304.921 126.4L306.546 128.8C308.621 128.05 310.021 126.7 310.821 125.025C311.571 126.775 312.896 128.275 314.996 129.05C317.096 128.225 318.421 126.7 319.171 124.95C319.946 126.7 321.346 128.075 323.521 128.8L325.146 126.4C322.096 125.475 320.846 123.25 320.846 120.875V120.1ZM335.944 111.05H340.694V108.325H327.794V111.05H332.594V112.325C332.594 116.25 330.719 120.475 326.869 122.2L328.744 124.825C331.444 123.6 333.294 121.075 334.319 118.075C335.344 120.85 337.169 123.1 339.844 124.25L341.644 121.65C337.794 120.05 335.944 116.075 335.944 112.325V111.05ZM342.819 106.125V129.15H346.119V106.125H342.819ZM359.056 112.625C359.056 110.925 360.306 109.925 362.006 109.925C363.706 109.925 364.956 110.925 364.956 112.625C364.956 114.3 363.706 115.3 362.006 115.3C360.306 115.3 359.056 114.3 359.056 112.625ZM368.131 112.625C368.131 109.475 365.506 107.225 362.006 107.225C358.506 107.225 355.881 109.475 355.881 112.625C355.881 115.75 358.506 118 362.006 118C365.506 118 368.131 115.75 368.131 112.625ZM360.931 119.675H357.731V128.575H359.006C361.256 128.575 363.056 128.45 364.956 127.8L364.506 125.2C363.356 125.575 362.156 125.775 360.931 125.875V119.675ZM369.906 126.95C369.031 126.95 368.381 126.625 368.381 125.925C368.381 125.25 369.031 124.925 369.906 124.925C370.806 124.925 371.431 125.25 371.431 125.925C371.431 126.625 370.806 126.95 369.906 126.95ZM369.906 122.7C367.281 122.7 365.456 123.95 365.456 125.925C365.456 127.925 367.281 129.175 369.906 129.175C372.531 129.175 374.356 127.925 374.356 125.925C374.356 123.95 372.531 122.7 369.906 122.7ZM371.556 118.125H368.356V119.75H364.156V122.125H375.681V119.75H371.556V118.125ZM373.831 110.875V106.125H370.531V117.475H373.831V113.6H376.881V110.875H373.831ZM398.479 112.575C393.304 112 390.804 109.4 390.804 107.075V106.375H387.404V107.075C387.404 109.425 384.904 111.975 379.729 112.575L380.879 115.125C384.804 114.625 387.654 113.025 389.104 110.825C390.579 113.025 393.379 114.65 397.304 115.125L398.479 112.575ZM393.629 126.325H384.404V124.325H393.629V126.325ZM393.629 121.85H384.404V119.925H381.129V128.875H396.879V119.925H393.629V121.85ZM378.704 116.175V118.775H399.504V116.175H378.704ZM406.177 108.3H402.902V123.475H404.952C408.452 123.475 412.277 123.225 416.202 122.4L415.852 119.65C412.477 120.325 409.202 120.575 406.177 120.65V108.3ZM417.627 106.1V129.125H420.927V106.1H417.627ZM428.875 110.925H436.325V108.25H425.575V123.675H427.55C431.55 123.675 434.7 123.55 438.175 122.925L437.85 120.2C434.875 120.7 432.15 120.875 428.875 120.925V110.925ZM446.075 114.625H442.725V106.125H439.425V129.2H442.725V117.35H446.075V114.625ZM450.673 127.35C451.998 127.35 452.973 126.3 452.973 124.95C452.973 123.6 451.998 122.55 450.673 122.55C449.373 122.55 448.398 123.6 448.398 124.95C448.398 126.3 449.373 127.35 450.673 127.35Z" fill="black"/>
<rect x="33.5" y="199.5" width="58" height="34" rx="4.5" stroke="#A9A9A9"/>
<path d="M58.5813 212.552C58.5813 214.28 58.5813 216.328 58.0213 219.16L59.6853 219.336C60.2453 216.344 60.2453 214.344 60.2453 212.552V211.128H49.9573V212.472H58.5813V212.552ZM55.1253 220.984V215.896H53.4613V220.984H48.5973V222.344H61.6533V220.984H55.1253ZM73.108 222.728H66.58V221.048H73.108V222.728ZM73.108 219.768H66.58V218.04H64.948V224.056H74.756V218.04H73.108V219.768ZM74.42 215.56C74.772 213.848 74.772 212.632 74.772 211.512V210.408H64.964V211.736H73.156C73.156 212.792 73.124 213.976 72.788 215.56H63.316V216.904H76.404V215.56H74.42Z" fill="#A9A9A9"/>
<rect x="426" y="199" width="183" height="35" rx="5" fill="#2071E7"/>
<path d="M450.925 214.98C450.925 213.914 451.705 213.212 452.732 213.212C453.759 213.212 454.552 213.914 454.552 214.98C454.552 216.059 453.759 216.761 452.732 216.761C451.705 216.761 450.925 216.059 450.925 214.98ZM455.865 214.98C455.865 213.264 454.513 212.055 452.732 212.055C450.964 212.055 449.612 213.264 449.612 214.98C449.612 216.696 450.964 217.918 452.732 217.918C454.513 217.918 455.865 216.696 455.865 214.98ZM452.55 218.984H451.198V222.78H459.102V221.688H452.55V218.984ZM458.634 214.746V211.262H457.295V219.868H458.634V215.851H460.298V214.746H458.634ZM467.681 214.408V215.513H469.813V219.855H471.152V211.275H469.813V214.408H467.681ZM468.409 217.151C466.654 216.54 465.653 215.071 465.653 213.628V213.225H468.097V212.146H461.818V213.225H464.301V213.628C464.301 215.214 463.235 216.761 461.415 217.398L462.104 218.451C463.495 217.97 464.483 216.943 465.003 215.669C465.497 216.826 466.446 217.749 467.746 218.191L468.409 217.151ZM464.886 221.688V219.114H463.547V222.78H471.451V221.688H464.886ZM480.329 212.601H477.534V211.249H476.195V212.601H473.4V213.667H480.329V212.601ZM475.298 216.436C475.298 215.695 475.935 215.253 476.858 215.253C477.794 215.253 478.431 215.695 478.431 216.436C478.431 217.177 477.794 217.619 476.858 217.619C475.935 217.619 475.298 217.177 475.298 216.436ZM479.705 216.436C479.705 215.11 478.548 214.213 476.858 214.213C475.181 214.213 474.011 215.11 474.011 216.436C474.011 217.775 475.181 218.659 476.858 218.659C478.548 218.659 479.705 217.775 479.705 216.436ZM476.468 219.387H475.116V222.78H483.02V221.688H476.468V219.387ZM482.552 215.006V211.262H481.213V220.063H482.552V216.111H484.216V215.006H482.552ZM490.437 213.758H491.62V219.023C491.217 219.049 490.827 219.062 490.437 219.075V213.758ZM492.842 213.758H493.713V212.679H488.37V213.758H489.215V219.101C488.825 219.101 488.461 219.101 488.136 219.101L488.292 220.206C489.774 220.206 492.192 220.154 494.025 219.79L493.934 218.815C493.596 218.867 493.219 218.906 492.842 218.945V213.758ZM494.779 215.643H493.388V216.826H494.779V222.416H496.04V211.522H494.779V215.643ZM497.08 211.262V223.001H498.367V211.262H497.08ZM508.532 211.249V223.027H509.884V211.249H508.532ZM503.631 212.12C501.889 212.12 500.615 213.732 500.615 216.254C500.615 218.802 501.889 220.401 503.631 220.401C505.386 220.401 506.66 218.802 506.66 216.254C506.66 213.732 505.386 212.12 503.631 212.12ZM503.631 213.329C504.658 213.329 505.373 214.434 505.373 216.254C505.373 218.1 504.658 219.205 503.631 219.205C502.617 219.205 501.902 218.1 501.902 216.254C501.902 214.434 502.617 213.329 503.631 213.329ZM516.513 213.537H519.126V212.432H512.548V213.537H515.161V214.655C515.161 216.67 513.952 218.854 512.132 219.699L512.899 220.765C514.277 220.102 515.33 218.711 515.85 217.073C516.396 218.594 517.449 219.868 518.814 220.466L519.555 219.413C517.722 218.633 516.513 216.605 516.513 214.655V213.537ZM520.491 211.262V223.001H521.843V211.262H520.491ZM530.109 220.518V218.516H533.775V217.437H526.742V215.799H533.515V212.081H525.403V213.16H532.189V214.733H525.429V218.516H528.77V220.518H524.142V221.623H534.776V220.518H530.109ZM541.621 220.908H548.303V218.1H540.269V219.101H546.99V219.959H540.295V222.884H548.641V221.857H541.621V220.908ZM545.001 216.215V215.253H548.394V214.187H541.712V212.757H548.277V211.678H540.386V215.253H543.649V216.215H538.995V217.281H549.642V216.215H545.001ZM554.1 219.205C553.073 219.205 552.371 218.1 552.371 216.267C552.371 214.434 553.073 213.329 554.1 213.329C555.114 213.329 555.829 214.434 555.829 216.267C555.829 218.1 555.114 219.205 554.1 219.205ZM554.1 212.12C552.345 212.12 551.084 213.732 551.084 216.267C551.084 218.802 552.345 220.401 554.1 220.401C555.855 220.401 557.116 218.802 557.116 216.267C557.116 213.732 555.855 212.12 554.1 212.12ZM561.9 215.851H560.067V211.262H558.728V223.014H560.067V216.956H561.9V215.851ZM563.511 212.497V213.589H567.619C567.346 216.293 565.799 218.36 562.926 219.829L563.667 220.856C567.502 218.919 568.958 215.903 568.958 212.497H563.511ZM573.807 215.89H572.026V211.249H570.687V222.988H572.026V217.008H573.807V215.89ZM575.561 212.497V213.589H579.747C579.513 216.293 578.057 218.36 574.976 219.842L575.691 220.908C579.721 218.958 581.125 215.994 581.125 212.497H575.561ZM583.244 211.262V223.001H584.583V211.262H583.244Z" fill="white"/>
<path d="M39.937 161.169C40.496 161.169 40.938 160.74 40.938 160.129C40.938 159.518 40.496 159.063 39.937 159.063C39.378 159.063 38.936 159.518 38.936 160.129C38.936 160.74 39.378 161.169 39.937 161.169ZM43.8091 161.169C44.3681 161.169 44.8101 160.74 44.8101 160.129C44.8101 159.518 44.3681 159.063 43.8091 159.063C43.2501 159.063 42.8081 159.518 42.8081 160.129C42.8081 160.74 43.2501 161.169 43.8091 161.169ZM47.6811 161.169C48.2401 161.169 48.6821 160.74 48.6821 160.129C48.6821 159.518 48.2401 159.063 47.6811 159.063C47.1221 159.063 46.6801 159.518 46.6801 160.129C46.6801 160.74 47.1221 161.169 47.6811 161.169Z" fill="#A9A9A9"/>
<defs>
<filter id="filter0_d" x="0" y="0" width="627" height="255" filterUnits="userSpaceOnUse" color-interpolation-filters="sRGB">
<feFlood flood-opacity="0" result="BackgroundImageFix"/>
<feColorMatrix in="SourceAlpha" type="matrix" values="0 0 0 0 0 0 0 0 0 0 0 0 0 0 0 0 0 0 127 0" result="hardAlpha"/>
<feOffset/>
<feGaussianBlur stdDeviation="2"/>
<feComposite in2="hardAlpha" operator="out"/>
<feColorMatrix type="matrix" values="0 0 0 0 0 0 0 0 0 0 0 0 0 0 0 0 0 0 0.5 0"/>
<feBlend mode="normal" in2="BackgroundImageFix" result="effect1_dropShadow"/>
<feBlend mode="normal" in="SourceGraphic" in2="effect1_dropShadow" result="shape"/>
</filter>
</defs>
</svg>
